<?xml version="1.0" encoding="iso-8859-1"?>
<!-- Generator: Adobe Illustrator 15.0.0, SVG Export Plug-In . SVG Version: 6.00 Build 0)  -->
<!DOCTYPE svg PUBLIC "-//W3C//DTD SVG 1.1//EN" "http://www.w3.org/Graphics/SVG/1.1/DTD/svg11.dtd">
<svg height="512" width="512" version="1.1" id="Layer_1" xmlns="http://www.w3.org/2000/svg" xmlns:xlink="http://www.w3.org/1999/xlink" x="0px" y="0px"
	   viewBox="-45.479 -48 120 120" style="enable-background:new -45.479 -48 120 120;"
	 xml:space="preserve">
<g id="Internet_2">
</g>
<g>
	<path d="M-15.479,72h-28c-1.105,0-2-0.893-2-1.998V-5.909c0-1.104,0.895-1.997,2-1.997h28c1.105,0,2,0.894,2,1.997v75.911
		C-13.479,71.107-14.374,72-15.479,72z M-41.479,68.004h24V-3.911h-24V68.004z"/>
	<path d="M-28.491-16.576c-8.566,0-15.531-7.05-15.531-15.716c0-8.665,6.965-15.708,15.531-15.708
		c8.563,0,15.527,7.043,15.527,15.708C-12.963-23.626-19.928-16.576-28.491-16.576z M-28.491-44.005
		c-6.359,0-11.531,5.252-11.531,11.713s5.172,11.721,11.531,11.721c6.355,0,11.527-5.26,11.527-11.721S-22.135-44.005-28.491-44.005
		z"/>
	<path d="M72.521,72h-24c-1.105,0-2-0.893-2-1.998V27.859c0-6.488-7.656-11.715-14-11.715s-14,5.227-14,11.715v42.143
		c0,1.105-0.895,1.998-2,1.998h-20c-1.105,0-2-0.893-2-1.998V-5.909c0-1.104,0.895-1.997,2-1.997h20c1.105,0,2,0.894,2,1.997v3.106
		c4.34-2.24,13.055-5.63,26-5.63c16.262,0,30,13.479,30,29.438v48.996C74.521,71.107,73.626,72,72.521,72z M50.521,68.004h20V21.006
		c0-13.793-11.906-25.443-26-25.443c-17.477,0-26.711,6.68-26.805,6.75c-0.605,0.448-1.414,0.519-2.094,0.179
		c-0.672-0.339-1.102-1.029-1.102-1.782v-4.62h-16v71.915h16V27.859c0-8.848,9.676-15.711,18-15.711s18,6.863,18,15.711V68.004z"/>
</g>
</svg>
